<svg width="24" height="24" viewBox="0 0 24 24" fill="none" xmlns="http://www.w3.org/2000/svg">
<path fill-rule="evenodd" clip-rule="evenodd" d="M7.30541 7.30535C7.71249 6.89827 8.3725 6.89827 8.77958 7.30535L12.0001 10.5259L15.2206 7.30536C15.6277 6.89828 16.2877 6.89828 16.6948 7.30536C17.1019 7.71245 17.1019 8.37246 16.6948 8.77954L13.4743 12L16.6948 15.2205C17.1019 15.6276 17.1019 16.2876 16.6948 16.6947C16.2877 17.1018 15.6277 17.1018 15.2206 16.6947L12.0001 13.4742L8.77958 16.6947C8.3725 17.1018 7.71249 17.1018 7.30541 16.6947C6.89833 16.2877 6.89833 15.6276 7.30541 15.2206L10.5259 12L7.30541 8.77953C6.89833 8.37245 6.89833 7.71244 7.30541 7.30535Z" fill="#1E212C"/>
<path fill-rule="evenodd" clip-rule="evenodd" d="M12 3C7.02944 3 3 7.02944 3 12C3 16.9706 7.02944 21 12 21C16.9706 21 21 16.9706 21 12C21 7.02944 16.9706 3 12 3ZM1 12C1 5.92487 5.92487 1 12 1C18.0751 1 23 5.92487 23 12C23 18.0751 18.0751 23 12 23C5.92487 23 1 18.0751 1 12Z" fill="#1E212C"/>
</svg>
