<svg width="24" height="24" viewBox="0 0 24 24" fill="none" xmlns="http://www.w3.org/2000/svg">
<path fill-rule="evenodd" clip-rule="evenodd" d="M10.1693 2.20161C10.8641 0.599464 13.1362 0.599462 13.8309 2.20161L15.9325 7.04812L21.1913 7.54921C22.9297 7.71487 23.6318 9.87574 22.3227 11.0316L18.3629 14.528L19.5113 19.6842C19.891 21.3887 18.0528 22.7242 16.5491 21.8364L12.0001 19.1508L7.45118 21.8364C5.9474 22.7242 4.10925 21.3887 4.48891 19.6842L5.63737 14.528L1.67751 11.0316C0.368464 9.87574 1.07057 7.71487 2.80899 7.54921L8.06773 7.04812L10.1693 2.20161ZM14.1017 7.84201L12.0001 2.9955L9.89851 7.84201C9.60936 8.50881 8.98054 8.96568 8.25702 9.03462L2.99829 9.53572L6.95815 13.0321C7.50297 13.5132 7.74316 14.2524 7.58515 14.9618L6.43668 20.118L10.9856 17.4324C11.6115 17.0629 12.3888 17.0629 13.0146 17.4324L17.5636 20.118L16.4151 14.9618C16.2571 14.2524 16.4973 13.5132 17.0421 13.0321L21.002 9.53572L15.7432 9.03462C15.0197 8.96568 14.3909 8.50881 14.1017 7.84201Z" fill="#1E212C"/>
</svg>

